#!OML:ASF H:\Terrain\Patient Classification 1\Walking\steve\steve.ASF
:FULLY-SPECIFIED
:DEGREES
91
root 7.74942 15.8577 -19.3696 7.6909 -1.77079 -4.65138
lowerback -0.0646925 3.85565 5.42888
upperback -2.22679 5.26444 3.03483
thorax -2.06061 2.55924 0.0155889
lowerneck -8.58845 -1.22816 -2.02747
upperneck 14.2772 -1.53007 1.09733
head 5.75025 -0.768087 0.564785
rclavicle 9.77027e-014 5.56597e-014
rhumerus -26.4718 8.37946 -79.6574
rradius 48.0186
rwrist -5.82492
rhand -17.4852 -37.3006
rfingers 7.12502
rthumb 8.76718 -67.0985
lclavicle 9.77027e-014 5.56597e-014
lhumerus -50.7956 -1.34051 80.7191
lradius 24.1592
lwrist 4.18411
lhand -24.1879 -20.5331
lfingers 7.12502
lthumb 2.2959 9.43434
rfemur -10.2742 -2.26033 28.7965
rtibia 32.3501
rfoot -12.2076 23.989
rtoes 13.0755
lfemur -36.9147 5.30991 -16.9669
ltibia 40.0613
lfoot -18.3888 3.84523
ltoes -18.981
92
root 7.76528 15.8591 -19.202 7.68943 -2.20818 -4.79858
lowerback -0.0287591 4.02547 5.54257
upperback -2.24263 5.49463 2.98881
thorax -2.07398 2.67075 -0.0980627
lowerneck -10.5402 -1.48649 -1.03724
upperneck 16.346 -1.7899 -0.274808
head 6.72675 -0.944175 -0.0745853
rclavicle 3.40419e-015 -1.74931e-014
rhumerus -25.654 8.9576 -79.4209
rradius 48.1759
rwrist -5.86893
rhand -17.77 -38.8427
rfingers 7.12502
rthumb 8.49227 -68.6519
lclavicle 3.40419e-015 -1.74931e-014
lhumerus -51.4836 -0.919834 79.984
lradius 23.9525
lwrist 4.31217
lhand -24.1331 -20.3534
lfingers 7.12502
lthumb 2.34879 9.61337
rfemur -9.14314 -2.27937 28.7665
rtibia 31.3659
rfoot -12.0319 24.2703
rtoes 11.6738
lfemur -37.5283 5.00418 -16.5341
ltibia 38.2222
lfoot -18.069 4.74679
ltoes -17.8669
93
root 7.77897 15.8608 -19.0315 7.78748 -2.74881 -4.6979
lowerback -0.193909 4.19457 5.29836
upperback -2.25251 5.70341 2.91829
thorax -1.99861 2.78068 -0.0253913
lowerneck -7.05432 -0.844209 -2.80953
upperneck 12.9147 -1.1124 2.40279
head 5.06788 -0.520256 1.13605
rclavicle -6.8208e-014 -9.54166e-015
rhumerus -24.4048 9.55729 -79.3048
rradius 47.631
rwrist -6.6643
rhand -17.8237 -40.8377
rfingers 7.12502
rthumb 8.44048 -70.649
lclavicle -6.8208e-014 -9.54166e-015
lhumerus -52.1756 -0.508516 79.3502
lradius 23.7184
lwrist 4.49344
lhand -24.048 -19.3941
lfingers 7.12502
lthumb 2.43098 10.5718
rfemur -8.14733 -2.54884 28.4215
rtibia 30.3625
rfoot -11.2553 24.8582
rtoes 11.9151
lfemur -38.158 4.77022 -16.3641
ltibia 36.3661
lfoot -18.0484 5.84045
ltoes -18.3745
94
root 7.79276 15.8574 -18.8596 7.80079 -3.27254 -4.82311
lowerback -0.210158 4.35709 5.21226
upperback -2.27834 5.92025 2.95603
thorax -2.02075 2.89025 0.0592046
lowerneck -10.3293 -1.51352 -0.962675
upperneck 16.3778 -1.80712 -0.474435
head 6.69747 -0.964819 -0.150758
rclavicle -4.70126e-014 -4.37326e-014
rhumerus -23.6586 10.3135 -79.1191
rradius 47.5924
rwrist -7.42966
rhand -17.8369 -42.5194
rfingers 7.12502
rthumb 8.42773 -72.3313
lclavicle -4.70126e-014 -4.37326e-014
lhumerus -52.9259 0.00312486 78.7354
lradius 23.6204
lwrist 4.55447
lhand -23.679 -18.8825
lfingers 7.12502
lthumb 2.78741 11.079
rfemur -7.03781 -3.04869 28.2848
rtibia 29.3661
rfoot -10.2054 25.737
rtoes 13.0081
lfemur -38.5811 4.34188 -15.8197
ltibia 34.5466
lfoot -18.5578 7.08101
ltoes -20.2219
95
root 7.81163 15.8513 -18.6836 7.77957 -3.55801 -4.92889
lowerback -0.224131 4.41393 5.20985
upperback -2.30399 5.99621 2.95139
thorax -2.03662 2.92752 0.0554813
lowerneck -9.98567 -1.50481 -0.924047
upperneck 16.2184 -1.79351 -0.548371
head 6.58521 -0.961786 -0.175726
rclavicle -2.45996e-015 -3.97569e-015
rhumerus -23.2821 10.6453 -78.8537
rradius 48.0873
rwrist -6.72928
rhand -19.9881 -40.9613
rfingers 7.12502
rthumb 6.35127 -70.8461
lclavicle -2.45996e-015 -3.97569e-015
lhumerus -53.5619 0.886016 77.6669
lradius 23.2597
lwrist 4.1327
lhand -23.7425 -19.8879
lfingers 7.12502
lthumb 2.72603 10.0744
rfemur -5.81026 -3.62687 28.1137
rtibia 28.3212
rfoot -9.64595 26.46
rtoes 12.2254
lfemur -39.0302 3.61015 -15.267
ltibia 32.8769
lfoot -18.8079 8.3957
ltoes -20.7492
96
root 7.82962 15.8317 -18.5053 7.89464 -3.81961 -5.29898
lowerback -0.419685 4.53351 5.53391
upperback -2.25555 6.13856 2.9534
thorax -1.83984 2.99718 -0.0986898
lowerneck -10.0605 -1.47096 -1.11981
upperneck 16.2157 -1.77567 -0.187064
head 6.60271 -0.935056 -0.0270298
rclavicle 3.90612e-014 5.40694e-014
rhumerus -22.4712 10.6423 -78.5917
rradius 48.2827
rwrist -6.03557
rhand -20.8946 -39.134
rfingers 7.12502
rthumb 5.47608 -69.0433
lclavicle 3.90612e-014 5.40694e-014
lhumerus -53.9907 1.54487 76.6201
lradius 22.7967
lwrist 3.62348
lhand -24.511 -21.0411
lfingers 7.12502
lthumb 1.98386 8.92938
rfemur -4.64339 -3.83721 28.2728
rtibia 27.1846
rfoot -9.39793 26.7992
rtoes 11.5811
lfemur -39.7185 3.01447 -14.3782
ltibia 31.4203
lfoot -19.0645 8.81786
ltoes -16.79
